# xmcd
#
# Track frame offsets:
#	150
#	14925
#	28420
#	40983
#	55483
#	71694
#	83684
#	97733
#	113920
#	129601
#	143464
#	156611
#	172361
#	184777
#	211547
#
# Disc length: 4440 seconds
#
# Revision: 1
# Processed by: cddbd v1.4PL0 Copyright (c) Steve Scherf et al.
# Submitted via: audiograbber 1.82.02
#
DISCID=db11560f
DTITLE=Dagmar - Helden gibt es überall
DYEAR=2003
DGENRE=country
TTITLE0=Helden gibt es überall
TTITLE1=Ein Sonntag mit dir
TTITLE2=Wenn man geht, geht man niemals für immer
TTITLE3=Trucker (Neue Version)
TTITLE4=Kein Kind von Traurigkeit
TTITLE5=Pures Gold
TTITLE6=Dafür bin ich
TTITLE7=Heute Abend bin ich nicht allein
TTITLE8=Ich möchte nie wieder Single sein
TTITLE9=Im nächsten Leben werd´ ich auch ein Mann
TTITLE10=Wahre Männer
TTITLE11=Zu teuer
TTITLE12=Keine Lust auf Frust
TTITLE13=Darf ein Truck mit seinem Fahrer in den Himmel
TTITLE14=Software für Player
EXTD=
EXTT0=
EXTT1=
EXTT2=
EXTT3=
EXTT4=
EXTT5=
EXTT6=
EXTT7=
EXTT8=
EXTT9=
EXTT10=
EXTT11=
EXTT12=
EXTT13=
EXTT14=
PLAYORDER=
